<svg width="32" height="32" viewBox="0 0 32 32" fill="none" xmlns="http://www.w3.org/2000/svg">
<path d="M28.1905 11.4285V6.84795C28.1905 6.04126 27.8707 5.26747 27.3011 4.69619C26.7316 4.12491 25.9587 3.80276 25.152 3.80034L20.5715 3.78662M28.1905 20.5714V25.1428C28.1905 25.9511 27.8694 26.7263 27.2979 27.2978C26.7264 27.8693 25.9512 28.1904 25.1429 28.1904H20.5715M11.4286 3.78662L6.84805 3.80186C6.04135 3.80428 5.26853 4.12644 4.69896 4.69771C4.1294 5.26899 3.80957 6.04278 3.80957 6.84948V11.4285M11.4286 28.1904H6.85719C6.04891 28.1904 5.27374 27.8693 4.7022 27.2978C4.13066 26.7263 3.80957 25.9511 3.80957 25.1428V20.5714" stroke="#FAFAFA" stroke-width="1.8" stroke-linecap="round" stroke-linejoin="round"/>
<path d="M15.9023 18.75C16.5273 18.75 17.0587 18.5313 17.4963 18.094C17.9337 17.6563 18.1523 17.125 18.1523 16.5C18.1523 15.875 17.9337 15.3437 17.4963 14.906C17.0587 14.4687 16.5273 14.25 15.9023 14.25C15.2773 14.25 14.746 14.4687 14.3083 14.906C13.871 15.3437 13.6523 15.875 13.6523 16.5C13.6523 17.125 13.871 17.6563 14.3083 18.094C14.746 18.5313 15.2773 18.75 15.9023 18.75ZM11.9023 20.5C11.6273 20.5 11.392 20.4022 11.1963 20.2065C11.0003 20.0105 10.9023 19.775 10.9023 19.5V13.5C10.9023 13.225 11.0003 12.9897 11.1963 12.794C11.392 12.598 11.6273 12.5 11.9023 12.5H13.4773L14.4023 11.5H17.4023L18.3273 12.5H19.9023C20.1773 12.5 20.4128 12.598 20.6088 12.794C20.8045 12.9897 20.9023 13.225 20.9023 13.5V19.5C20.9023 19.775 20.8045 20.0105 20.6088 20.2065C20.4128 20.4022 20.1773 20.5 19.9023 20.5H11.9023Z" fill="#FAFAFA"/>
</svg>
