<svg width="300" height="323" viewBox="0 0 300 323" fill="none" xmlns="http://www.w3.org/2000/svg">
<rect width="300" height="323" rx="8" fill="#D9D9D9"/>
<path d="M182 150V137.976C182 135.858 181.16 133.827 179.665 132.328C178.17 130.828 176.142 129.982 174.024 129.976L162 129.94M182 174V186C182 188.122 181.157 190.157 179.657 191.657C178.157 193.157 176.122 194 174 194H162M138 129.94L125.976 129.98C123.858 129.986 121.83 130.832 120.335 132.332C118.84 133.831 118 135.862 118 137.98V150M138 194H126C123.878 194 121.843 193.157 120.343 191.657C118.843 190.157 118 188.122 118 186V174" stroke="#C4C4C4" stroke-width="2" stroke-linecap="round" stroke-linejoin="round"/>
<path d="M149.75 169.219C151.391 169.219 152.785 168.645 153.934 167.497C155.082 166.348 155.656 164.953 155.656 163.312C155.656 161.672 155.082 160.277 153.934 159.128C152.785 157.98 151.391 157.406 149.75 157.406C148.109 157.406 146.715 157.98 145.566 159.128C144.418 160.277 143.844 161.672 143.844 163.312C143.844 164.953 144.418 166.348 145.566 167.497C146.715 168.645 148.109 169.219 149.75 169.219ZM139.25 173.812C138.528 173.812 137.91 173.556 137.397 173.042C136.882 172.528 136.625 171.909 136.625 171.188V155.438C136.625 154.716 136.882 154.098 137.397 153.584C137.91 153.07 138.528 152.812 139.25 152.812H143.384L145.812 150.188H153.688L156.116 152.812H160.25C160.972 152.812 161.59 153.07 162.105 153.584C162.618 154.098 162.875 154.716 162.875 155.438V171.188C162.875 171.909 162.618 172.528 162.105 173.042C161.59 173.556 160.972 173.812 160.25 173.812H139.25Z" fill="#C4C4C4"/>
</svg>
